<?xml version="1.0" encoding="utf-8"?>
<!-- Generator: Adobe Illustrator 23.0.2, SVG Export Plug-In . SVG Version: 6.00 Build 0)  -->
<svg version="1.1" xmlns="http://www.w3.org/2000/svg" xmlns:xlink="http://www.w3.org/1999/xlink"
	x="0px" y="0px"
	viewBox="0 0 786 76" xml:space="preserve">
<style type="text/css">
	.st0{fill:#102630;}
	.st1{fill:url(#SVGID_1_);}
	.st2{fill:url(#SVGID_2_);}
	.st3{fill:url(#SVGID_3_);}
</style>
<path class="st0" d="M646,0H140H88l49,71.6c1.9,2.7,5,4.4,8.3,4.4h495.5c3.3,0,6.4-1.6,8.3-4.4L698,0H646z"/>
<linearGradient id="SVGID_1_" gradientUnits="userSpaceOnUse" x1="393" y1="76" x2="393" y2="0">
	<stop  offset="0" style="stop-color:#3B90B5"/>
	<stop  offset="1" style="stop-color:#3B90B5;stop-opacity:0"/>
</linearGradient>
<path class="st1" d="M649,71.6L698,0h-7.3l-44.9,65.6c-1.9,2.7-5,4.4-8.3,4.4H148.4c-3.3,0-6.4-1.6-8.3-4.4L95.3,0H88l49,71.6
	c1.9,2.7,5,4.4,8.3,4.4h495.5C644,76,647.1,74.4,649,71.6z"/>
<path class="st0" d="M88,0l39,57H44.3c-3.3,0-6.4-1.6-8.3-4.4L0,0H88z"/>
<path class="st0" d="M698,0l-39,57h82.7c3.3,0,6.4-1.6,8.3-4.4L786,0H698z"/>
<linearGradient id="SVGID_2_" gradientUnits="userSpaceOnUse" x1="845.6561" y1="20.1101" x2="868.3171" y2="59.3601" gradientTransform="matrix(1 0 0 1 -128 0)">
	<stop  offset="0" style="stop-color:#FFFFFF;stop-opacity:0.8"/>
	<stop  offset="0" style="stop-color:#3B90B5;stop-opacity:0"/>
	<stop  offset="1" style="stop-color:#3B90B5"/>
</linearGradient>
<path class="st2" d="M786,0h-6.1l-32.6,47.6c-1.9,2.7-5,4.4-8.3,4.4h-76.7l-3.4,5h82.7c3.3,0,6.4-1.6,8.3-4.4L786,0z"/>
<linearGradient id="SVGID_3_" gradientUnits="userSpaceOnUse" x1="1796.6561" y1="20.1101" x2="1819.3171" y2="59.3601" gradientTransform="matrix(-1 0 0 1 1865 0)">
	<stop  offset="0" style="stop-color:#FFFFFF;stop-opacity:0.8"/>
	<stop  offset="0" style="stop-color:#3B90B5;stop-opacity:0"/>
	<stop  offset="1" style="stop-color:#3B90B5"/>
</linearGradient>
<path class="st3" d="M0,0h6.1l32.6,47.6c1.9,2.7,5,4.4,8.3,4.4h76.7l3.4,5H44.3c-3.3,0-6.4-1.6-8.3-4.4L0,0z"/>
</svg>